<svg version="1.1" xmlns="http://www.w3.org/2000/svg" xmlns:xlink="http://www.w3.org/1999/xlink" width="34" height="24"><defs/><g><path fill="rgb(124,124,124)" stroke="none" paint-order="stroke fill markers" fill-rule="evenodd" d=" M 14.055562436580658 22.99993395805359 C 14.055562436580658 22.99993395805359 20.944343090057373 22.99993395805359 20.944343090057373 22.99993395805359 C 20.944343090057373 22.99993395805359 20.944343090057373 19.500031113624573 20.944343090057373 19.500031113624573 C 20.944343090057373 19.500031113624573 14.055562436580658 19.500031113624573 14.055562436580658 19.500031113624573 C 14.055562436580658 19.500031113624573 14.055562436580658 22.99993395805359 14.055562436580658 22.99993395805359 Z M 1.9999579191207886 1.9999639987945557 C 1.9999579191207886 1.9999639987945557 1.9999579191207886 5.500005066394806 1.9999579191207886 5.500005066394806 C 1.9999579191207886 5.500005066394806 32.99994760751724 5.500005066394806 32.99994760751724 5.500005066394806 C 32.99994760751724 5.500005066394806 32.99994760751724 1.9999639987945557 32.99994760751724 1.9999639987945557 C 32.99994760751724 1.9999639987945557 1.9999579191207886 1.9999639987945557 1.9999579191207886 1.9999639987945557 Z M 7.166613519191742 14.250038623809814 C 7.166613519191742 14.250038623809814 27.833235919475555 14.250038623809814 27.833235919475555 14.250038623809814 C 27.833235919475555 14.250038623809814 27.833235919475555 10.749997556209564 27.833235919475555 10.749997556209564 C 27.833235919475555 10.749997556209564 7.166613519191742 10.749997556209564 7.166613519191742 10.749997556209564 C 7.166613519191742 10.749997556209564 7.166613519191742 14.250038623809814 7.166613519191742 14.250038623809814 Z"/></g></svg>